<svg width="22" height="21" viewBox="0 0 22 21" fill="none" xmlns="http://www.w3.org/2000/svg">
<path d="M9.40625 1.64062L10.4375 0.609375C10.9062 0.1875 11.6094 0.1875 12.0312 0.609375L21.1719 9.70312C21.5938 10.1719 21.5938 10.875 21.1719 11.2969L12.0312 20.4375C11.6094 20.8594 10.9062 20.8594 10.4375 20.4375L9.40625 19.4062C8.98438 18.9375 8.98438 18.2344 9.40625 17.7656L15.0781 12.375H1.625C0.96875 12.375 0.5 11.9062 0.5 11.25V9.75C0.5 9.14062 0.96875 8.625 1.625 8.625H15.0781L9.40625 3.28125C8.98438 2.8125 8.9375 2.10938 9.40625 1.64062Z" fill="#1C1A1C"/>
</svg>
