<svg width="22" height="21" viewBox="0 0 22 21" fill="none" xmlns="http://www.w3.org/2000/svg">
<path d="M13.0469 19.4062L12.0156 20.4375C11.5469 20.8594 10.8438 20.8594 10.4219 20.4375L1.32812 11.2969C0.859375 10.875 0.859375 10.1719 1.32812 9.75L10.4219 0.609375C10.8438 0.1875 11.5938 0.1875 12.0156 0.609375L13.0469 1.64062C13.5156 2.10938 13.4688 2.8125 13.0469 3.28125L7.375 8.625H20.875C21.4844 8.625 22 9.14062 22 9.75V11.25C22 11.9062 21.4844 12.375 20.875 12.375H7.375L13.0469 17.7656C13.4688 18.2344 13.5156 18.9375 13.0469 19.4062Z" fill="#1C1A1C"/>
</svg>
