<svg width="15" height="16" viewBox="0 0 15 16" fill="none" xmlns="http://www.w3.org/2000/svg">
<path d="M8.5 13C8.28125 13 8.125 12.8438 8.125 12.625V5.875C8.125 5.6875 8.28125 5.5 8.5 5.5H9.25C9.4375 5.5 9.625 5.6875 9.625 5.875V12.625C9.625 12.8438 9.4375 13 9.25 13H8.5ZM13.625 2.5C13.875 2.5 14.125 2.75 14.125 3V3.5C14.125 3.78125 13.875 4 13.625 4H13.125V14.5C13.125 15.3438 12.4375 16 11.625 16H2.625C1.78125 16 1.125 15.3438 1.125 14.5V4H0.625C0.34375 4 0.125 3.78125 0.125 3.5V3C0.125 2.75 0.34375 2.5 0.625 2.5H3.1875L4.25 0.75C4.5 0.3125 5 0 5.53125 0H8.6875C9.21875 0 9.71875 0.3125 9.96875 0.75L11.0312 2.5H13.625ZM5.46875 1.59375L4.9375 2.5H9.28125L8.75 1.59375C8.71875 1.5625 8.65625 1.5 8.59375 1.5H5.65625C5.625 1.5 5.625 1.5 5.625 1.5C5.5625 1.5 5.5 1.5625 5.46875 1.59375ZM11.625 14.5V4H2.625V14.5H11.625ZM5 13C4.78125 13 4.625 12.8438 4.625 12.625V5.875C4.625 5.6875 4.78125 5.5 5 5.5H5.75C5.9375 5.5 6.125 5.6875 6.125 5.875V12.625C6.125 12.8438 5.9375 13 5.75 13H5Z" fill="#1C1A1C"/>
</svg>
