<svg width="66" height="66" viewBox="0 0 66 66" fill="none" xmlns="http://www.w3.org/2000/svg">
<rect width="66" height="66" fill="white"/>
<path d="M21.64 57.9983C21.4613 57.9963 21.2848 57.9793 21.1087 57.9673C18.0274 57.7489 15.2687 56.4481 13.1395 54.5646C11.9263 53.4879 10.9233 52.2298 10.155 50.9134C9.38665 49.5971 8.83169 48.2298 8.48302 46.8583C8.05009 45.1459 7.93787 43.4695 8.02987 41.9485C8.12187 40.4276 8.43019 39.0524 8.84241 37.8623C9.30736 36.5242 9.89726 35.4331 10.4988 34.5684C11.1002 33.7037 11.7063 33.0555 12.2332 32.5952C12.7602 32.1349 13.2028 31.8566 13.5302 31.7096C13.8576 31.5626 14.0818 31.5464 14.1552 31.6474C14.2286 31.7485 14.163 31.9629 13.9989 32.2845C13.8349 32.6061 13.5683 33.0418 13.2489 33.6051C12.9295 34.1685 12.5528 34.8743 12.202 35.7182C11.8512 36.562 11.5199 37.5413 11.3113 38.6702C11.1247 39.6735 11.0414 40.7928 11.1082 41.9796C11.1749 43.1664 11.3875 44.4194 11.8269 45.6463C12.1774 46.6302 12.6762 47.6136 13.3114 48.5207C13.9466 49.4278 14.7229 50.2581 15.624 50.9445C17.2008 52.1515 19.2217 52.9359 21.3119 52.9643C23.2224 52.9957 25.2607 52.3893 26.9528 51.162C28.322 50.1749 29.4945 48.7447 30.2811 47.0758C29.4993 44.4698 29.3226 41.6207 29.8436 38.8256C29.95 38.2604 30.0726 37.6976 30.2342 37.1476C29.7441 36.1335 29.1226 35.1999 28.3904 34.4286C27.2213 33.1484 25.6104 32.1971 23.9057 31.2279C22.1113 30.2412 20.1511 29.2675 18.2648 27.9651C16.2468 26.6042 14.4148 24.7174 13.1708 22.3407C12.5259 21.0778 12.1003 19.675 11.952 18.2234C11.7967 16.7037 11.9919 15.1723 12.5145 13.7643C13.2635 11.8279 14.5589 10.3716 16.0459 9.47602C17.6506 8.51517 19.373 8.17698 20.9524 8.31074C22.6999 8.46058 24.2241 9.10929 25.4683 9.97321C25.8569 10.2431 26.2275 10.5288 26.5621 10.8277C28.1603 9.09689 30.4506 8 33 8C35.5573 8 37.8547 9.10302 39.4535 10.8433C39.7886 10.5417 40.14 10.2452 40.5317 9.97321C41.7759 9.10929 43.3158 8.46058 45.0632 8.31074C46.6426 8.17698 48.3494 8.51517 49.9541 9.47602C51.4411 10.3716 52.7364 11.8279 53.4855 13.7643C54.0081 15.1723 54.2189 16.7037 54.0637 18.2234C53.9153 19.675 53.4897 21.0778 52.8448 22.3407C51.6009 24.7174 49.7531 26.6042 47.7352 27.9651C45.8489 29.2675 43.9043 30.2412 42.1099 31.2279C40.4052 32.1971 38.7943 33.1484 37.6252 34.4286C36.8879 35.2052 36.2573 36.1408 35.7658 37.1631C35.7635 37.1676 35.7681 37.1741 35.7658 37.1786C35.9233 37.7184 36.0677 38.2712 36.172 38.8255C36.6931 41.6207 36.5163 44.4698 35.7345 47.0757C36.5211 48.7446 37.6936 50.1749 39.0628 51.162C40.755 52.3892 42.7776 52.9956 44.6881 52.9643C46.7783 52.9358 48.8148 52.1514 50.3916 50.9444C51.2927 50.258 52.069 49.4278 52.7042 48.5207C53.3394 47.6135 53.8226 46.6301 54.173 45.6463C54.6125 44.4193 54.8407 43.1663 54.9075 41.9796C54.9742 40.7928 54.891 39.6735 54.7043 38.6701C54.4958 37.5413 54.1488 36.5619 53.798 35.7181C53.4472 34.8743 53.0861 34.1684 52.7667 33.6051C52.4473 33.0417 52.181 32.606 52.0167 32.2844C51.8524 31.9628 51.787 31.7485 51.8604 31.6474C51.9339 31.5463 52.1424 31.5625 52.4698 31.7095C52.7972 31.8566 53.2398 32.1348 53.7668 32.5952C54.2937 33.0555 54.9154 33.7037 55.5169 34.5684C56.1184 35.4331 56.7083 36.5241 57.1732 37.8622C57.5854 39.0524 57.8781 40.4275 57.9701 41.9485C58.0621 43.4694 57.95 45.1458 57.517 46.8582C57.1683 48.2298 56.6133 49.597 55.845 50.9134C55.0767 52.2297 54.0893 53.4878 52.8761 54.5646C50.7469 56.4481 47.9882 57.7488 44.9069 57.9672C42.0898 58.1614 39.1072 57.4282 36.4846 55.6677C35.2001 54.802 34.0188 53.6988 33.0156 52.4049C32.011 53.7024 30.8183 54.8001 29.531 55.6677C27.2362 57.2082 24.6806 57.9643 22.1869 57.9983C22.0088 58.0008 21.8187 58.0003 21.64 57.9983ZM33 45.3977C33.5365 45.3977 33.9688 43.9174 33.9688 42.0883C33.9688 40.2593 33.5365 38.7789 33 38.7789C32.4635 38.7789 32.0312 40.2593 32.0312 42.0883C32.0312 43.9174 32.4635 45.3977 33 45.3977ZM33 31.694C33.352 31.2363 33.7141 30.7994 34.1094 30.3889C35.9615 28.5148 38.0054 27.275 39.9066 26.3027C41.8752 25.2634 43.7039 24.4385 45.2194 23.4439C46.7959 22.3778 48.1364 21.214 48.8759 19.8237C49.2752 19.1035 49.5677 18.3522 49.6728 17.6175C49.7817 16.8581 49.7505 16.0815 49.5478 15.4423C49.2976 14.5579 48.6771 13.7622 47.9539 13.2205C47.1642 12.6242 46.1499 12.3232 45.1882 12.2882C44.1136 12.2481 43.0475 12.5715 42.1099 13.0496C41.78 13.2178 41.4716 13.415 41.1723 13.6244C41.5361 14.5805 41.7505 15.618 41.7505 16.7008C41.7505 21.502 37.8287 25.386 33 25.386C28.1714 25.386 24.2495 21.502 24.2495 16.7008C24.2495 15.618 24.4639 14.5805 24.8277 13.6244C24.5315 13.4178 24.2318 13.2159 23.9057 13.0496C22.9681 12.5715 21.9021 12.2481 20.8274 12.2882C19.8657 12.3232 18.8514 12.6242 18.0617 13.2205C17.3386 13.7622 16.7181 14.5579 16.4678 15.4423C16.2651 16.0815 16.2339 16.8581 16.3428 17.6175C16.4479 18.3522 16.7404 19.1035 17.1397 19.8237C17.8793 21.214 19.2197 22.3778 20.7962 23.4439C22.3117 24.4385 24.1404 25.2634 26.109 26.3027C28.0103 27.275 30.0385 28.5148 31.8906 30.3889C32.2837 30.797 32.6498 31.2392 33 31.694ZM33 23.4594C35.2227 23.4594 37.0315 21.6609 37.0315 19.4508C37.0315 17.2408 35.2227 15.4578 33 15.4578C30.7773 15.4578 28.9685 17.2407 28.9685 19.4508C28.9685 21.6609 30.7773 23.4594 33 23.4594Z" fill="black"/>
</svg>
