<svg width="50" height="50" viewBox="0 0 50 50" fill="none" xmlns="http://www.w3.org/2000/svg">
<path d="M13.64 49.9983C13.4613 49.9963 13.2848 49.9794 13.1087 49.9673C10.0274 49.7489 7.26872 48.4482 5.13953 46.5646C3.9263 45.4879 2.92331 44.2298 2.15498 42.9134C1.38665 41.5971 0.831686 40.2298 0.483016 38.8583C0.0500898 37.1459 -0.0621336 35.4695 0.0298664 33.9485C0.121866 32.4276 0.430186 31.0524 0.842409 29.8623C1.30736 28.5242 1.89726 27.4331 2.49875 26.5684C3.10024 25.7037 3.70626 25.0555 4.23322 24.5952C4.76018 24.1349 5.20276 23.8566 5.53017 23.7096C5.85757 23.5626 6.08175 23.5464 6.1552 23.6474C6.22865 23.7485 6.16302 23.9629 5.99894 24.2845C5.83487 24.6061 5.5683 25.0418 5.2489 25.6051C4.9295 26.1685 4.55277 26.8743 4.20197 27.7182C3.85118 28.562 3.51988 29.5413 3.31129 30.6702C3.12468 31.6735 3.04142 32.7928 3.10815 33.9796C3.17489 35.1664 3.3875 36.4194 3.82694 37.6463C4.17737 38.6302 4.6762 39.6136 5.3114 40.5207C5.9466 41.4278 6.7229 42.2581 7.62403 42.9445C9.20084 44.1515 11.2217 44.9359 13.3119 44.9643C15.2224 44.9957 17.2607 44.3893 18.9528 43.162C20.322 42.1749 21.4945 40.7447 22.2811 39.0758C21.4993 36.4698 21.3226 33.6207 21.8436 30.8256C21.95 30.2604 22.0726 29.6976 22.2342 29.1476C21.7441 28.1335 21.1226 27.1999 20.3904 26.4286C19.2213 25.1484 17.6104 24.1971 15.9057 23.2279C14.1113 22.2412 12.1511 21.2675 10.2648 19.9651C8.24684 18.6042 6.41476 16.7174 5.17076 14.3407C4.52592 13.0778 4.10031 11.675 3.95195 10.2234C3.79671 8.70365 3.9919 7.1723 4.51447 5.76425C5.26355 3.82793 6.55886 2.37157 8.04592 1.47602C9.65056 0.51517 11.373 0.176979 12.9524 0.310744C14.6999 0.460585 16.2241 1.10929 17.4683 1.97321C17.8569 2.24308 18.2275 2.52879 18.5621 2.82774C20.1603 1.09689 22.4506 0 25 0C27.5573 0 29.8547 1.10302 31.4535 2.84329C31.7886 2.54174 32.14 2.24523 32.5317 1.97321C33.7759 1.10929 35.3158 0.460585 37.0632 0.310744C38.6426 0.176979 40.3494 0.51517 41.9541 1.47602C43.4411 2.37157 44.7364 3.82793 45.4855 5.76425C46.0081 7.17229 46.2189 8.70365 46.0637 10.2234C45.9153 11.675 45.4897 13.0778 44.8448 14.3407C43.6009 16.7174 41.7531 18.6042 39.7352 19.9651C37.8489 21.2675 35.9043 22.2412 34.1099 23.2279C32.4052 24.1971 30.7943 25.1484 29.6252 26.4286C28.8879 27.2052 28.2573 28.1408 27.7658 29.1631C27.7635 29.1676 27.7681 29.1741 27.7658 29.1786C27.9233 29.7184 28.0677 30.2712 28.172 30.8255C28.6931 33.6207 28.5163 36.4698 27.7345 39.0757C28.5211 40.7446 29.6936 42.1749 31.0628 43.1619C32.755 44.3892 34.7776 44.9956 36.6881 44.9643C38.7783 44.9358 40.8148 44.1514 42.3916 42.9444C43.2927 42.258 44.069 41.4278 44.7042 40.5207C45.3394 39.6135 45.8226 38.6301 46.173 37.6463C46.6125 36.4193 46.8407 35.1663 46.9075 33.9796C46.9742 32.7928 46.891 31.6735 46.7043 30.6701C46.4958 29.5413 46.1488 28.5619 45.798 27.7181C45.4472 26.8743 45.0861 26.1684 44.7667 25.6051C44.4473 25.0417 44.181 24.606 44.0167 24.2844C43.8524 23.9628 43.787 23.7485 43.8604 23.6474C43.9339 23.5463 44.1424 23.5625 44.4698 23.7095C44.7972 23.8566 45.2398 24.1348 45.7668 24.5952C46.2937 25.0555 46.9154 25.7037 47.5169 26.5684C48.1184 27.4331 48.7083 28.5241 49.1732 29.8622C49.5854 31.0524 49.8781 32.4275 49.9701 33.9485C50.0621 35.4694 49.95 37.1458 49.517 38.8582C49.1683 40.2298 48.6133 41.597 47.845 42.9134C47.0767 44.2297 46.0893 45.4878 44.8761 46.5646C42.7469 48.4481 39.9882 49.7488 36.9069 49.9672C34.0898 50.1614 31.1072 49.4282 28.4846 47.6677C27.2001 46.802 26.0188 45.6988 25.0156 44.4049C24.011 45.7024 22.8183 46.8001 21.531 47.6677C19.2362 49.2082 16.6806 49.9643 14.1869 49.9983C14.0088 50.0008 13.8187 50.0003 13.64 49.9983ZM25 37.3977C25.5365 37.3977 25.9688 35.9174 25.9688 34.0883C25.9688 32.2593 25.5365 30.7789 25 30.7789C24.4635 30.7789 24.0312 32.2593 24.0312 34.0883C24.0312 35.9174 24.4635 37.3977 25 37.3977ZM25 23.694C25.352 23.2363 25.7141 22.7994 26.1094 22.3889C27.9615 20.5148 30.0054 19.275 31.9066 18.3027C33.8752 17.2634 35.7039 16.4385 37.2194 15.4439C38.7959 14.3778 40.1364 13.214 40.8759 11.8237C41.2752 11.1035 41.5677 10.3522 41.6728 9.61745C41.7817 8.85813 41.7505 8.08153 41.5478 7.44226C41.2976 6.55792 40.6771 5.76221 39.9539 5.22046C39.1642 4.62424 38.1499 4.32322 37.1882 4.28824C36.1136 4.24815 35.0475 4.57148 34.1099 5.04956C33.78 5.21785 33.4716 5.41496 33.1723 5.62443C33.5361 6.5805 33.7505 7.61804 33.7505 8.70077C33.7505 13.502 29.8287 17.386 25 17.386C20.1714 17.386 16.2495 13.502 16.2495 8.70077C16.2495 7.61804 16.4639 6.5805 16.8277 5.62443C16.5315 5.41778 16.2318 5.2159 15.9057 5.04956C14.9681 4.57148 13.9021 4.24811 12.8274 4.28824C11.8657 4.32324 10.8514 4.62424 10.0617 5.22046C9.33856 5.76222 8.71805 6.55792 8.46784 7.44226C8.2651 8.08153 8.2339 8.85814 8.34283 9.61745C8.44789 10.3522 8.7404 11.1035 9.13974 11.8237C9.87926 13.214 11.2197 14.3778 12.7962 15.4439C14.3117 16.4385 16.1404 17.2634 18.109 18.3027C20.0103 19.275 22.0385 20.5148 23.8906 22.3889C24.2837 22.797 24.6498 23.2392 25 23.694ZM25 15.4594C27.2227 15.4594 29.0315 13.6609 29.0315 11.4508C29.0315 9.24076 27.2227 7.4578 25 7.4578C22.7773 7.4578 20.9685 9.24075 20.9685 11.4508C20.9685 13.6609 22.7773 15.4594 25 15.4594Z" fill="white"/>
</svg>
