<svg width="19" height="17" viewBox="0 0 19 17" fill="none" xmlns="http://www.w3.org/2000/svg">
<path d="M12.5625 11.7812L13.5625 10.7812C13.7188 10.625 14 10.75 14 10.9688V15.5C14 16.3438 13.3125 17 12.5 17H1.5C0.65625 17 0 16.3438 0 15.5V4.5C0 3.6875 0.65625 3 1.5 3H10.0312C10.25 3 10.375 3.28125 10.2188 3.4375L9.21875 4.4375C9.15625 4.5 9.09375 4.5 9.03125 4.5H1.5V15.5H12.5V11.9688C12.5 11.9062 12.5 11.8438 12.5625 11.7812ZM17.4375 5.5L9.25 13.6875L6.40625 14C5.59375 14.0938 4.90625 13.4062 5 12.5938L5.3125 9.75L13.5 1.5625C14.2188 0.84375 15.375 0.84375 16.0938 1.5625L17.4375 2.90625C18.1562 3.625 18.1562 4.78125 17.4375 5.5ZM14.375 6.4375L12.5625 4.625L6.75 10.4375L6.5 12.5L8.5625 12.25L14.375 6.4375ZM16.375 3.96875L15.0312 2.625C14.9062 2.46875 14.6875 2.46875 14.5625 2.625L13.625 3.5625L15.4375 5.40625L16.4062 4.4375C16.5312 4.28125 16.5312 4.09375 16.375 3.96875Z" fill="#1C1A1C"/>
</svg>
